<svg width="900" height="470" viewBox="0 0 900 470" xmlns="http://www.w3.org/2000/svg" font-family="DejaVu Sans">
<rect width="900" height="470" fill="#0b0f1e" rx="12"/>
<text x="40" y="40" font-size="20" font-weight="bold" fill="#e6e9f5">Scores by category (normalized 0 to 1)</text>
<text x="40" y="63" font-size="13" fill="#8a93b8">Faithfulness stays high everywhere. Precision@3 is where the system breaks.</text>
<line x1="70" y1="390.0" x2="860" y2="390.0" stroke="#1e2440" stroke-width="1"/>
<text x="58" y="394.0" font-size="12" fill="#6b7299" text-anchor="end">0.00</text>
<line x1="70" y1="315.0" x2="860" y2="315.0" stroke="#1e2440" stroke-width="1"/>
<text x="58" y="319.0" font-size="12" fill="#6b7299" text-anchor="end">0.25</text>
<line x1="70" y1="240.0" x2="860" y2="240.0" stroke="#1e2440" stroke-width="1"/>
<text x="58" y="244.0" font-size="12" fill="#6b7299" text-anchor="end">0.50</text>
<line x1="70" y1="165.0" x2="860" y2="165.0" stroke="#1e2440" stroke-width="1"/>
<text x="58" y="169.0" font-size="12" fill="#6b7299" text-anchor="end">0.75</text>
<line x1="70" y1="90.0" x2="860" y2="90.0" stroke="#1e2440" stroke-width="1"/>
<text x="58" y="94.0" font-size="12" fill="#6b7299" text-anchor="end">1.00</text>
<rect x="97.8" y="90.0" width="42" height="300.0" rx="3" fill="#34d399"/>
<text x="118.8" y="84.0" font-size="11" fill="#c7cdee" text-anchor="middle">5.00</text>
<rect x="147.8" y="168.6" width="42" height="221.4" rx="3" fill="#c084fc"/>
<text x="168.8" y="162.6" font-size="11" fill="#c7cdee" text-anchor="middle">3.69</text>
<rect x="197.8" y="165.0" width="42" height="225.0" rx="3" fill="#818cf8"/>
<text x="218.8" y="159.0" font-size="11" fill="#c7cdee" text-anchor="middle">0.75</text>
<text x="168.8" y="414.0" font-size="13" font-weight="bold" fill="#9aa3c7" text-anchor="middle">happy_path</text>
<rect x="295.2" y="102.0" width="42" height="288.0" rx="3" fill="#34d399"/>
<text x="316.2" y="96.0" font-size="11" fill="#c7cdee" text-anchor="middle">4.80</text>
<rect x="345.2" y="216.0" width="42" height="174.0" rx="3" fill="#c084fc"/>
<text x="366.2" y="210.0" font-size="11" fill="#c7cdee" text-anchor="middle">2.90</text>
<rect x="395.2" y="300.0" width="42" height="90.0" rx="3" fill="#818cf8"/>
<text x="416.2" y="294.0" font-size="11" fill="#c7cdee" text-anchor="middle">0.30</text>
<text x="366.2" y="414.0" font-size="13" font-weight="bold" fill="#9aa3c7" text-anchor="middle">edge_case</text>
<rect x="492.8" y="90.0" width="42" height="300.0" rx="3" fill="#34d399"/>
<text x="513.8" y="84.0" font-size="11" fill="#c7cdee" text-anchor="middle">5.00</text>
<rect x="542.8" y="90.0" width="42" height="300.0" rx="3" fill="#c084fc"/>
<text x="563.8" y="84.0" font-size="11" fill="#c7cdee" text-anchor="middle">5.00</text>
<rect x="592.8" y="390.0" width="42" height="0.0" rx="3" fill="#818cf8"/>
<text x="613.8" y="384.0" font-size="11" fill="#c7cdee" text-anchor="middle">0.00</text>
<text x="563.8" y="414.0" font-size="13" font-weight="bold" fill="#9aa3c7" text-anchor="middle">adversarial</text>
<rect x="690.2" y="90.0" width="42" height="300.0" rx="3" fill="#34d399"/>
<text x="711.2" y="84.0" font-size="11" fill="#c7cdee" text-anchor="middle">5.00</text>
<rect x="740.2" y="186.0" width="42" height="204.0" rx="3" fill="#c084fc"/>
<text x="761.2" y="180.0" font-size="11" fill="#c7cdee" text-anchor="middle">3.40</text>
<rect x="790.2" y="210.0" width="42" height="180.0" rx="3" fill="#818cf8"/>
<text x="811.2" y="204.0" font-size="11" fill="#c7cdee" text-anchor="middle">0.60</text>
<text x="761.2" y="414.0" font-size="13" font-weight="bold" fill="#9aa3c7" text-anchor="middle">bias_paired</text>
<rect x="70" y="433" width="14" height="14" rx="3" fill="#34d399"/>
<text x="90" y="444" font-size="13" fill="#c7cdee">Faithfulness</text>
<rect x="208.39999999999998" y="433" width="14" height="14" rx="3" fill="#c084fc"/>
<text x="228.39999999999998" y="444" font-size="13" fill="#c7cdee">Relevance</text>
<rect x="322.2" y="433" width="14" height="14" rx="3" fill="#818cf8"/>
<text x="342.2" y="444" font-size="13" fill="#c7cdee">Precision@3</text>
<text x="860" y="458" font-size="11" fill="#5a6088" text-anchor="end">Faithfulness and Relevance scaled /5; Precision@3 is native 0 to 1.</text>
</svg>